<svg xmlns="http://www.w3.org/2000/svg" viewBox="0 0 256 19"><path fill="#FFFFFF" d="M216.842 16.741c0.291-0.289 0.436-0.648 0.436-1.078c0-0.444-0.141-0.809-0.424-1.092 c-0.283-0.281-0.65-0.424-1.102-0.424c-0.438 0-0.799 0.146-1.086 0.436c-0.285 0.289-0.43 0.65-0.43 1.1 c0 0.4 0.1 0.8 0.4 1.074c0.293 0.3 0.7 0.4 1.1 0.438C216.188 17.2 216.6 17 216.8 16.7 M207.625 15.437c0.764-1.21 1.145-2.906 1.145-5.092c0-2.185-0.381-3.884-1.145-5.098c-0.762-1.214-1.82-1.821-3.174-1.821 c-1.346 0-2.4 0.607-3.164 1.821c-0.762 1.214-1.143 2.913-1.143 5.098c0 2.2 0.4 3.9 1.1 5.081s1.818 1.8 3.2 1.8 C205.805 17.3 206.9 16.6 207.6 15.4 M202.094 14.771c-0.584-1.096-0.875-2.57-0.875-4.426 c0-1.861 0.295-3.341 0.885-4.437c0.592-1.096 1.373-1.644 2.348-1.644c0.996 0 1.8 0.5 2.4 1.6 c0.584 1.1 0.9 2.6 0.9 4.441c0 1.849-0.293 3.321-0.881 4.421s-1.375 1.648-2.363 1.6 C203.463 16.4 202.7 15.9 202.1 14.8 M189.305 6.447c0.582-1.208 1.373-2.193 2.375-2.953 c0.236-0.179 0.455-0.328 0.654-0.446c0.201-0.117 0.42-0.224 0.656-0.316c0.48-0.194 1.002-0.344 1.568-0.452l0.225-0.043 c0.58-0.107 0.871-0.29 0.871-0.548c0-0.129-0.053-0.229-0.156-0.296c-0.104-0.068-0.25-0.103-0.436-0.103 c-0.693 0-1.498 0.192-2.41 0.575c-0.914 0.383-1.699 0.88-2.359 1.489c-0.994 0.924-1.75 2.044-2.266 3.4 c-0.516 1.315-0.773 2.786-0.773 4.412c0 1.9 0.4 3.4 1.3 4.462c0.836 1.1 1.9 1.7 3.3 1.7 c1.166 0 2.145-0.437 2.932-1.312c0.789-0.873 1.182-1.969 1.182-3.287c0-1.36-0.396-2.5-1.191-3.42 c-0.795-0.921-1.762-1.381-2.9-1.381c-0.811 0-1.539 0.249-2.188 0.747c-0.646 0.498-1.129 1.187-1.443 2.1 C188.363 9.1 188.7 7.7 189.3 6.4 M189.596 15.179c-0.594-0.73-0.891-1.641-0.891-2.729c0-1.024 0.299-1.883 0.896-2.573 s1.328-1.036 2.186-1.036c0.889 0 1.6 0.3 2.2 1.036c0.584 0.7 0.9 1.6 0.9 2.595c0 1.074-0.301 1.977-0.902 2.7 s-1.328 1.096-2.182 1.096C190.92 16.3 190.2 15.9 189.6 15.2 M176.414 6.447c0.58-1.208 1.371-2.193 2.373-2.953 c0.238-0.179 0.455-0.328 0.656-0.446c0.201-0.117 0.42-0.224 0.656-0.316c0.479-0.194 1.002-0.344 1.566-0.452l0.227-0.043 c0.58-0.107 0.871-0.29 0.871-0.548c0-0.129-0.053-0.229-0.156-0.296c-0.105-0.068-0.25-0.103-0.436-0.103 c-0.695 0-1.498 0.192-2.41 0.575c-0.914 0.383-1.701 0.88-2.359 1.489c-0.996 0.924-1.75 2.044-2.266 3.4 c-0.518 1.315-0.773 2.786-0.773 4.412c0 1.9 0.4 3.4 1.3 4.462s1.945 1.7 3.3 1.666c1.166 0 2.145-0.437 2.932-1.312 c0.787-0.873 1.182-1.969 1.182-3.287c0-1.36-0.396-2.5-1.191-3.42c-0.795-0.921-1.762-1.381-2.902-1.381 c-0.809 0-1.537 0.249-2.186 0.747s-1.129 1.187-1.445 2.066C175.473 9.1 175.8 7.7 176.4 6.4 M176.703 15.2 c-0.594-0.73-0.891-1.641-0.891-2.729c0-1.024 0.299-1.883 0.896-2.573c0.6-0.69 1.326-1.036 2.188-1.036 c0.887 0 1.6 0.3 2.2 1.036s0.875 1.6 0.9 2.595c0 1.074-0.301 1.977-0.902 2.707s-1.328 1.096-2.18 1.1 C178.029 16.3 177.3 15.9 176.7 15.2 M167.17 4.555v-0.44c0-0.265-0.027-0.437-0.08-0.516 c-0.055-0.078-0.152-0.118-0.297-0.118c-0.129 0.015-0.312 0.072-0.549 0.172l-0.193 0.083l-2.662 1.1 c-0.258 0.107-0.441 0.213-0.547 0.317c-0.109 0.104-0.162 0.209-0.162 0.316c0 0.1 0 0.2 0.1 0.3 c0.082 0.1 0.2 0.1 0.3 0.112c0.148 0 0.355-0.053 0.621-0.158l0.133-0.045l2.309-0.969v11.312h-3.17 c-0.271 0-0.461 0.043-0.568 0.129s-0.16 0.22-0.16 0.397c0 0.2 0.1 0.3 0.2 0.344c0.125 0.1 0.4 0.1 0.8 0.1 h6.607c0.508 0 0.826-0.037 0.951-0.107c0.125-0.071 0.188-0.189 0.188-0.354c0-0.18-0.061-0.309-0.184-0.388 c-0.121-0.077-0.322-0.117-0.6-0.117h-3.084V4.555L167.17 4.555z M144.713 8.562c-0.344-0.58-0.785-1.012-1.324-1.294 c-0.539-0.283-1.203-0.426-1.99-0.426c-1.316 0-2.375 0.474-3.18 1.418c-0.805 0.946-1.207 2.196-1.207 3.7 c0 1.5 0.4 2.8 1.2 3.744c0.814 0.9 1.9 1.4 3.2 1.423c0.762 0 1.414-0.162 1.955-0.487 c0.543-0.326 1.012-0.828 1.406-1.51v1.074v0.16c0 0.2 0 0.4 0.1 0.474c0.057 0.1 0.2 0.1 0.3 0.097h1.16 c0.377 0 0.645-0.041 0.805-0.123s0.24-0.209 0.24-0.382c0-0.149-0.061-0.262-0.178-0.333c-0.117-0.07-0.307-0.107-0.564-0.107 h-0.859V4.469v-0.16c0-0.243-0.027-0.399-0.086-0.468c-0.057-0.067-0.152-0.102-0.289-0.102h-2.074 c-0.473 0-0.777 0.034-0.912 0.102c-0.137 0.068-0.205 0.188-0.205 0.36c0 0.2 0.1 0.3 0.2 0.4 c0.105 0.1 0.3 0.1 0.6 0.097h1.723V8.562z M139.01 15.131c-0.602-0.733-0.902-1.737-0.902-3.013 c0-1.303 0.314-2.352 0.945-3.143c0.629-0.791 1.451-1.188 2.459-1.188c1.004 0 1.8 0.4 2.4 1.1 c0.6 0.7 0.9 1.7 0.9 2.934c0 1.346-0.307 2.418-0.924 3.217c-0.615 0.799-1.432 1.197-2.449 1.2 C140.424 16.2 139.6 15.9 139 15.1 M131.691 12.01c0.594 0 0.973-0.056 1.139-0.166c0.164-0.11 0.246-0.319 0.246-0.628 c0-1.247-0.447-2.286-1.348-3.12c-0.898-0.835-2.025-1.253-3.377-1.253c-1.448 0-2.646 0.486-3.594 1.5 c-0.949 0.972-1.424 2.208-1.424 3.711c0 1.5 0.5 2.7 1.4 3.713c0.934 1 2.1 1.5 3.6 1.5 c1.024 0 1.995-0.264 2.911-0.788c0.916-0.526 1.375-0.994 1.375-1.401c-0.006-0.123-0.045-0.216-0.113-0.279 c-0.068-0.064-0.148-0.098-0.242-0.098c-0.113 0-0.58 0.271-1.395 0.812c-0.818 0.541-1.662 0.812-2.536 0.8 c-1.19 0-2.127-0.377-2.816-1.131c-0.709-0.797-1.063-1.826-1.063-3.092L131.691 12.01L131.691 12.01z M125.831 8.7 c0.698-0.599 1.523-0.897 2.477-0.897c0.514 0 1 0.1 1.4 0.226c0.422 0.1 0.8 0.4 1.1 0.7 c0.68 0.6 1.1 1.4 1.2 2.385h-7.53C124.687 10.1 125.1 9.3 125.8 8.7 M110.8 16.06h-0.859 c-0.258 0-0.448 0.04-0.569 0.118c-0.122 0.078-0.183 0.192-0.183 0.344c0 0.2 0.1 0.3 0.2 0.365s0.417 0.1 0.9 0.1 h2.148c0.516 0 0.836-0.035 0.961-0.106c0.126-0.071 0.188-0.183 0.188-0.333c0-0.18-0.061-0.301-0.182-0.365 c-0.107-0.078-0.312-0.118-0.613-0.118h-0.902v-6.026c0.467-0.737 1.014-1.299 1.645-1.687c0.631-0.387 1.301-0.58 2.008-0.58 c0.752 0 1.3 0.2 1.6 0.623c0.329 0.4 0.5 1.2 0.5 2.277v5.393h-0.924c-0.294 0-0.5 0.036-0.618 0.1 s-0.177 0.19-0.177 0.354c0 0.2 0.1 0.3 0.2 0.365c0.149 0.1 0.5 0.1 0.9 0.097h2.235 c0.429 0 0.712-0.027 0.849-0.086c0.129-0.078 0.193-0.188 0.193-0.332c0-0.188-0.056-0.318-0.167-0.394 c-0.11-0.074-0.299-0.112-0.563-0.112h-0.902v-5.414c0-1.39-0.24-2.367-0.721-2.933c-0.479-0.566-1.26-0.849-2.342-0.849 c-0.723 0-1.41 0.17-2.062 0.51c-0.651 0.34-1.246 0.836-1.783 1.488V4.467V4.199c0-0.2-0.024-0.328-0.075-0.381 c-0.051-0.054-0.144-0.081-0.279-0.081h-1.181c-0.38 0-0.656 0.039-0.828 0.118c-0.157 0.086-0.236 0.215-0.236 0.4 c0 0.2 0.1 0.3 0.2 0.344c0.129 0.1 0.3 0.1 0.6 0.097h0.859V16.06L110.8 16.06z M99.527 16.6 c0.659 0.4 1.4 0.5 2.2 0.53c1.131 0 2.048-0.271 2.75-0.812c0.701-0.539 1.052-1.229 1.052-2.066 c0-0.795-0.261-1.417-0.784-1.863c-0.523-0.447-1.543-0.854-3.061-1.22l-0.935-0.216c-1.64-0.387-2.46-0.924-2.46-1.61 c0-0.516 0.215-0.914 0.645-1.197c0.429-0.283 1.02-0.425 1.772-0.425c0.738 0 1.4 0.1 1.8 0.4 c0.487 0.3 0.8 0.7 1.1 1.192L103.76 9.7c0.15 0.4 0.3 0.6 0.5 0.645c0.143 0 0.238-0.061 0.284-0.178 c0.047-0.118 0.07-0.37 0.07-0.757V7.938c0-0.329-0.038-0.565-0.113-0.709c-0.075-0.144-0.199-0.215-0.37-0.215 c-0.144 0-0.249 0.042-0.317 0.124s-0.102 0.201-0.102 0.359v0.14l0.064 0.548c-0.322-0.451-0.748-0.787-1.278-1.01 c-0.53-0.222-1.168-0.334-1.912-0.334c-1.017 0-1.843 0.246-2.476 0.736c-0.634 0.491-0.951 1.127-0.951 1.9 c0 0.6 0.2 1.1 0.6 1.439s1.329 0.7 2.8 1.042l0.311 0.075c2.313 0.6 3.5 1.3 3.5 2.3 c0 0.586-0.245 1.053-0.736 1.396c-0.49 0.344-1.137 0.516-1.939 0.516c-0.387 0-0.743-0.05-1.069-0.149 c-0.326-0.101-0.632-0.246-0.918-0.438c-0.566-0.394-1.042-0.985-1.429-1.776c-0.043-0.086-0.077-0.16-0.102-0.221 s-0.052-0.133-0.08-0.22c-0.129-0.336-0.273-0.503-0.43-0.503c-0.186 0-0.317 0.084-0.392 0.3 c-0.075 0.168-0.113 0.46-0.113 0.876v2.127c0 0.3 0 0.5 0.1 0.698S97.49 17.1 97.7 17.1 c0.136 0 0.236-0.047 0.301-0.142c0.064-0.094 0.096-0.244 0.096-0.453v-0.105l-0.021-1.221 C98.374 15.8 98.9 16.3 99.5 16.6 M87.845 16.06h-2.729c-0.258 0-0.448 0.04-0.569 0.1 c-0.122 0.078-0.183 0.192-0.183 0.344c0 0.2 0.1 0.3 0.2 0.365s0.417 0.1 0.9 0.097h5.961 c0.516 0 0.835-0.033 0.956-0.103c0.122-0.067 0.183-0.181 0.183-0.338c0-0.173-0.055-0.296-0.166-0.371 c-0.112-0.074-0.314-0.112-0.607-0.112h-2.858V7.789v-0.15c0-0.243-0.025-0.404-0.075-0.483c-0.057-0.064-0.158-0.097-0.301-0.097 h-3.19c-0.373 0-0.645 0.04-0.817 0.118c-0.157 0.086-0.236 0.215-0.236 0.387c0 0.2 0.1 0.3 0.2 0.3 c0.072 0 0.1 0.1 0.2 0.069c0.072 0 0.2 0 0.4 0.017h2.815V16.06z M89.084 5.8 c0.254-0.261 0.382-0.585 0.382-0.972c0-0.401-0.128-0.732-0.382-0.993c-0.254-0.262-0.582-0.394-0.983-0.394 c-0.386 0-0.711 0.138-0.972 0.409c-0.261 0.272-0.392 0.599-0.392 0.978c0 0.4 0.1 0.7 0.4 1 c0.268 0.3 0.6 0.4 1 0.392C88.502 6.2 88.8 6 89.1 5.8 M74.792 16.06h-2.815 c-0.257 0-0.445 0.042-0.564 0.124c-0.118 0.082-0.177 0.194-0.177 0.338c0 0.2 0.1 0.3 0.2 0.4 c0.129 0.1 0.4 0.1 0.9 0.097h6.048c0.515 0 0.836-0.035 0.961-0.106s0.188-0.183 0.188-0.333 c0-0.18-0.061-0.301-0.182-0.365c-0.108-0.078-0.312-0.118-0.613-0.118h-2.857V4.469V4.201c-0.022-0.222-0.054-0.354-0.097-0.397 C75.694 3.8 75.6 3.7 75.5 3.74h-3.19c-0.373 0-0.645 0.039-0.816 0.118c-0.158 0.086-0.237 0.215-0.237 0.4 c0 0.2 0.1 0.3 0.2 0.344c0.129 0.1 0.3 0.1 0.6 0.097h2.815V16.06L74.792 16.06z M58.682 12.4 c0 1.427-0.061 2.719-0.182 3.879l-0.022 0.215c0 0.1 0 0.1 0 0.184l0.175 0.129l0.28 0.15l0.076 0.031l0.129 0 c0.064-0.008 0.115-0.029 0.151-0.064c0.036-0.036 0.064-0.102 0.086-0.193l0.355-1.214c0.431 0.6 0.9 1 1.4 1.3 c0.524 0.3 1.1 0.4 1.8 0.412c1.328 0 2.4-0.476 3.215-1.429c0.815-0.952 1.222-2.198 1.222-3.738 c0-1.546-0.405-2.794-1.214-3.742c-0.809-0.949-1.865-1.425-3.169-1.425c-0.773 0-1.436 0.143-1.987 0.4 c-0.552 0.282-0.995 0.714-1.332 1.294V4.47V4.31c0-0.236-0.025-0.394-0.075-0.473c-0.058-0.064-0.158-0.097-0.301-0.097h-1.257 c-0.372 0-0.644 0.039-0.816 0.118c-0.158 0.086-0.237 0.215-0.237 0.387c0 0.2 0.1 0.3 0.2 0.3 c0.118 0.1 0.3 0.1 0.6 0.103h0.881V12.386z M60.564 8.885c0.609-0.73 1.405-1.096 2.388-1.096 c1.026 0 1.9 0.4 2.5 1.192c0.624 0.8 0.9 1.8 0.9 3.138c0 1.274-0.301 2.278-0.904 3 c-0.602 0.733-1.417 1.103-2.442 1.103c-1.033 0-1.853-0.399-2.459-1.199c-0.606-0.797-0.909-1.869-0.909-3.217 C59.649 10.6 60 9.6 60.6 8.9 M51.837 16.866c0.258 0.2 0.6 0.3 0.9 0.311c0.48 0 0.901-0.15 1.262-0.455 c0.362-0.305 0.543-0.613 0.543-0.93c-0.007-0.115-0.038-0.201-0.092-0.258c-0.053-0.058-0.12-0.086-0.198-0.086 c-0.129 0-0.323 0.112-0.58 0.338c-0.258 0.227-0.491 0.338-0.699 0.338c-0.257 0-0.435-0.098-0.531-0.295 c-0.097-0.197-0.145-0.672-0.145-1.424v-3.76c0-1.304-0.298-2.264-0.892-2.879c-0.594-0.616-1.522-0.925-2.782-0.925 c-1.06 0-1.955 0.23-2.686 0.688c-0.73 0.458-1.095 0.985-1.095 1.579c0 0.3 0.1 0.6 0.3 0.8 c0.214 0.2 0.5 0.3 0.8 0.29c0.308 0 0.568-0.102 0.779-0.305c0.211-0.204 0.317-0.46 0.317-0.769 c0-0.093-0.007-0.174-0.021-0.241c-0.015-0.068-0.036-0.132-0.065-0.188c-0.057-0.129-0.143-0.243-0.258-0.344 c0.244-0.2 0.528-0.345 0.854-0.436c0.326-0.089 0.743-0.134 1.252-0.134c0.83 0 1.4 0.2 1.9 0.6 c0.408 0.4 0.6 1.1 0.6 1.907v0.602c-1.174 0-2.205 0.09-3.093 0.27c-0.888 0.179-1.637 0.418-2.245 0.7 c-1.139 0.58-1.708 1.414-1.708 2.503c0 0.9 0.3 1.5 0.9 2.041c0.588 0.5 1.4 0.8 2.4 0.8 c0.537 0 1.124-0.104 1.762-0.315c0.637-0.211 1.307-0.521 2.008-0.93C51.4 16.3 51.6 16.7 51.8 16.9 M49.304 15.9 c-0.643 0.236-1.211 0.354-1.706 0.354c-0.689 0-1.25-0.179-1.684-0.537c-0.434-0.357-0.651-0.81-0.651-1.354 c0-0.795 0.459-1.387 1.377-1.771c0.538-0.236 1.152-0.42 1.84-0.549c0.818-0.15 1.737-0.226 2.755-0.226v3.071 C50.59 15.3 49.9 15.6 49.3 15.9 M33.257 13.288c0 1.3 0.2 2.3 0.7 2.934c0.487 0.6 1.2 1 2.2 1 c0.594 0 1.144-0.146 1.648-0.443c0.505-0.298 0.922-0.719 1.252-1.265c0.222-0.343 0.399-0.714 0.532-1.11 c0.132-0.397 0.198-0.703 0.198-0.918c0-0.173-0.044-0.313-0.134-0.425c-0.09-0.11-0.192-0.167-0.306-0.167 c-0.258 0-0.451 0.255-0.58 0.764l-0.129 0.45c-0.287 0.694-0.645 1.22-1.074 1.573c-0.43 0.354-0.906 0.532-1.429 0.5 c-0.659 0-1.135-0.23-1.429-0.692c-0.293-0.462-0.44-1.227-0.44-2.294V7.983h3.556c0.272 0 0.465-0.028 0.58-0.086 c0.114-0.071 0.172-0.183 0.172-0.333c0-0.18-0.079-0.309-0.237-0.387c-0.157-0.078-0.429-0.118-0.816-0.118H33.59 c0.315-0.379 0.551-0.795 0.709-1.246c0.157-0.451 0.236-0.938 0.236-1.461c0-0.236-0.039-0.415-0.118-0.537 c-0.079-0.121-0.193-0.183-0.344-0.183c-0.236 0-0.429 0.363-0.58 1.091c-0.15 0.727-0.347 1.255-0.591 1.6 c-0.243 0.329-0.585 0.572-1.025 0.73c-0.441 0.157-0.661 0.333-0.661 0.526c0 0.2 0.1 0.3 0.2 0.3 c0.072 0 0.1 0.1 0.2 0.069c0.071 0 0.2 0 0.4 0.017h1.289V13.288L33.257 13.288z M21.134 16.6 c0.659 0.4 1.4 0.5 2.2 0.53c1.132 0 2.048-0.271 2.75-0.812c0.702-0.539 1.053-1.229 1.053-2.066 c0-0.795-0.262-1.417-0.784-1.863c-0.523-0.447-1.544-0.854-3.062-1.22l-0.934-0.216c-1.64-0.387-2.46-0.924-2.46-1.61 c0-0.516 0.215-0.914 0.644-1.197c0.43-0.283 1.021-0.425 1.773-0.425c0.737 0 1.4 0.1 1.8 0.4 c0.487 0.3 0.8 0.7 1.1 1.192L25.366 9.7c0.151 0.4 0.3 0.6 0.5 0.645c0.143 0 0.238-0.061 0.285-0.178 c0.046-0.118 0.07-0.37 0.07-0.757V7.938c0-0.329-0.038-0.565-0.113-0.709c-0.075-0.144-0.199-0.215-0.371-0.215 c-0.143 0-0.249 0.042-0.317 0.124s-0.102 0.201-0.102 0.359v0.14l0.065 0.548c-0.323-0.451-0.749-0.787-1.279-1.01 c-0.53-0.222-1.167-0.334-1.912-0.334c-1.017 0-1.842 0.246-2.476 0.736c-0.634 0.491-0.95 1.127-0.95 1.9 c0 0.6 0.2 1.1 0.6 1.439c0.401 0.3 1.3 0.7 2.8 1.042l0.312 0.075c2.313 0.6 3.5 1.3 3.5 2.3 c0 0.586-0.246 1.053-0.736 1.396c-0.491 0.344-1.137 0.516-1.939 0.516c-0.387 0-0.743-0.05-1.069-0.149 c-0.326-0.101-0.632-0.246-0.919-0.438c-0.565-0.394-1.041-0.985-1.428-1.776c-0.043-0.086-0.077-0.16-0.102-0.221 s-0.052-0.133-0.081-0.22c-0.129-0.336-0.272-0.503-0.43-0.503c-0.186 0-0.316 0.084-0.392 0.3 c-0.075 0.168-0.112 0.46-0.112 0.876v2.127c0 0.3 0 0.5 0.1 0.698c0.078 0.1 0.2 0.2 0.4 0.2 c0.136 0 0.237-0.047 0.301-0.142c0.065-0.094 0.097-0.244 0.097-0.453v-0.105l-0.022-1.221 C19.981 15.8 20.5 16.3 21.1 16.6 M5.061 3.739c-0.372 0-0.645 0.039-0.816 0.118C4.087 3.9 4 4.1 4 4.2 c0 0.2 0.1 0.3 0.2 0.344c0.129 0.1 0.3 0.1 0.6 0.097h0.817V16.06H4.749c-0.257 0-0.445 0.042-0.563 0.1 c-0.119 0.082-0.178 0.194-0.178 0.338c0 0.2 0.1 0.3 0.2 0.365s0.414 0.1 0.9 0.097h7.573 c0.731 0 1.177-0.08 1.338-0.242c0.161-0.16 0.284-0.584 0.37-1.272l0.226-1.729l0.043-0.408l0.043-0.375 c0-0.144-0.038-0.26-0.113-0.35c-0.075-0.09-0.17-0.135-0.285-0.135c-0.207 0-0.365 0.29-0.472 0.87l-0.247 1.1 c-0.179 0.651-0.416 1.082-0.709 1.293c-0.294 0.213-0.742 0.317-1.343 0.317H6.597V10.27h3.01c0.236 0 0.4 0.1 0.5 0.2 c0.128 0.1 0.2 0.2 0.2 0.408c0.029 0.2 0 0.3 0.1 0.393c0.007 0.1 0 0.2 0 0.4 c0 0.6 0.2 0.9 0.5 0.936c0.167 0 0.283-0.09 0.348-0.27c0.065-0.178 0.098-0.564 0.098-1.159V8.798 c0-0.538-0.04-0.914-0.118-1.128c-0.079-0.215-0.201-0.322-0.365-0.322c-0.28 0-0.419 0.308-0.419 0.924l-0.043 0.6 c-0.058 0.215-0.136 0.365-0.237 0.451c-0.122 0.086-0.308 0.129-0.558 0.129H6.597V4.684h3.352h1.052 c0.673 0 1.1 0.1 1.4 0.183s0.446 0.3 0.6 0.677c0.071 0.1 0.1 0.3 0.2 0.43c0.047 0.1 0.1 0.4 0.2 0.6 c0.157 0.6 0.3 0.9 0.5 0.859c0.129 0 0.224-0.046 0.285-0.14c0.06-0.093 0.091-0.222 0.091-0.387L14.213 6.51L14.17 6.1 l-0.129-0.988c-0.093-0.63-0.234-1.016-0.424-1.155S12.856 3.7 11.9 3.74h-0.172L5.061 3.739L5.061 3.739z"/></svg>
