<svg xmlns="http://www.w3.org/2000/svg" viewBox="0 0 254 78"><path fill="#FFFFFF" d="M221.76 2.329h1.782l-1.701 7.616h-1.296L221.76 2.329z"/><path fill="#FFFFFF" d="M233.794 14.742c0.742 0.6 1.6 1.1 2.6 1.396c1.013 0.3 2.1 0.6 3.3 0.789l0.852 0.133v-1.573 l-0.906-0.142c-2.29-0.378-3.968-1.04-5.032-1.987c-1.065-0.946-1.597-2.312-1.597-4.097c0-2.109 0.695-3.684 2.088-4.726 c1.267-0.95 3.088-1.462 5.447-1.545V1.617c-1.137 0.044-2.199 0.182-3.181 0.424c-1.201 0.296-2.248 0.761-3.139 1.4 c-0.892 0.635-1.587 1.437-2.086 2.407c-0.5 0.971-0.75 2.144-0.75 3.519c0 1.2 0.2 2.3 0.6 3.2 C232.471 13.4 233.1 14.2 233.8 14.742z"/><path fill="#FFFFFF" d="M242.117 2.995c1.013 0 1.9 0.2 2.7 0.383c0.958 0.3 1.8 0.7 2.4 1.2 c0.646 0.5 1.2 1.1 1.6 1.842c0.392 0.7 0.7 1.5 1 2.431l1.498-0.405c-0.243-0.836-0.567-1.667-0.973-2.492 c-0.405-0.823-0.979-1.558-1.721-2.204c-0.743-0.646-1.695-1.159-2.856-1.54c-0.981-0.322-2.178-0.499-3.565-0.548V2.995z"/><path fill="#FFFFFF" d="M250.971 20.599c-0.391-0.906-0.943-1.669-1.657-2.292c-0.715-0.621-1.577-1.122-2.587-1.501 c-1.012-0.378-2.148-0.675-3.414-0.893l-1.195-0.187v1.574l0.974 0.152c2.269 0.4 4 1.1 5.1 2 c1.12 1 1.7 2.4 1.7 4.368c0 0.944-0.135 1.82-0.404 2.629c-0.27 0.809-0.723 1.51-1.356 2.1 c-0.636 0.594-1.479 1.059-2.532 1.395c-0.939 0.301-2.097 0.46-3.444 0.492v1.5c1.536-0.033 2.888-0.226 4.031-0.595 c1.256-0.406 2.287-0.975 3.093-1.705c0.805-0.729 1.392-1.595 1.762-2.596c0.369-0.999 0.554-2.096 0.554-3.285 C251.557 22.6 251.4 21.5 251 20.599z"/><path fill="#FFFFFF" d="M240.579 30.448c-4.806-0.263-7.589-2.37-8.346-6.33h-1.538c0.161 1.4 0.6 2.6 1.2 3.6 c0.648 1 1.5 1.8 2.5 2.419c0.985 0.6 2.1 1.1 3.4 1.377c0.92 0.2 1.9 0.3 2.9 0.403V30.448z"/><path fill="#FFFFFF" d="M4.897 14.742c0.742 0.6 1.6 1.1 2.6 1.396c1.013 0.3 2.1 0.6 3.3 0.789l0.851 0.133v-1.573 l-0.905-0.142c-2.291-0.378-3.969-1.04-5.033-1.987c-1.064-0.946-1.596-2.312-1.596-4.097c0-2.109 0.695-3.684 2.086-4.726 c1.269-0.95 3.089-1.462 5.448-1.545V1.617c-1.136 0.044-2.198 0.182-3.18 0.424c-1.202 0.296-2.248 0.761-3.14 1.4 C4.472 4.1 3.8 4.9 3.3 5.843c-0.5 0.971-0.75 2.144-0.75 3.519c0 1.2 0.2 2.3 0.6 3.2 C3.574 13.4 4.2 14.2 4.9 14.742z"/><path fill="#FFFFFF" d="M13.222 2.995c1.013 0 1.9 0.2 2.7 0.383c0.957 0.3 1.8 0.7 2.4 1.2 c0.648 0.5 1.2 1.1 1.6 1.842c0.392 0.7 0.7 1.5 1 2.431l1.498-0.405c-0.243-0.836-0.566-1.667-0.972-2.492 c-0.405-0.823-0.979-1.558-1.722-2.204s-1.695-1.159-2.855-1.54c-0.982-0.322-2.179-0.499-3.565-0.548V2.995z"/><path fill="#FFFFFF" d="M22.074 20.599c-0.392-0.906-0.943-1.669-1.657-2.292c-0.715-0.621-1.578-1.122-2.587-1.501 c-1.011-0.378-2.149-0.675-3.415-0.893l-1.193-0.187v1.574l0.972 0.152c2.27 0.4 4 1.1 5.1 2 c1.121 1 1.7 2.4 1.7 4.368c0 0.944-0.136 1.82-0.405 2.629c-0.27 0.809-0.722 1.51-1.356 2.1 s-1.479 1.059-2.532 1.395c-0.939 0.301-2.096 0.46-3.443 0.492v1.5c1.536-0.033 2.887-0.226 4.03-0.595 c1.257-0.406 2.287-0.975 3.092-1.705c0.806-0.729 1.393-1.595 1.763-2.596c0.369-0.999 0.554-2.096 0.554-3.285 C22.66 22.6 22.5 21.5 22.1 20.599z"/><path fill="#FFFFFF" d="M11.683 30.448c-4.806-0.263-7.589-2.37-8.345-6.33H1.799c0.161 1.4 0.6 2.6 1.2 3.6 c0.647 1 1.5 1.8 2.5 2.419c0.984 0.6 2.1 1.1 3.4 1.377c0.919 0.2 1.9 0.3 2.9 0.403V30.448z"/><path fill="#FFFFFF" d="M194.633 14.742c0.743 0.6 1.6 1.1 2.6 1.396c1.013 0.3 2.1 0.6 3.3 0.789l0.852 0.133v-1.573 l-0.906-0.142c-2.291-0.378-3.968-1.04-5.032-1.987c-1.064-0.946-1.597-2.312-1.597-4.097c0-2.109 0.694-3.684 2.087-4.726 c1.268-0.95 3.088-1.462 5.448-1.545V1.617c-1.136 0.044-2.199 0.182-3.181 0.424c-1.201 0.296-2.248 0.761-3.139 1.4 c-0.892 0.635-1.588 1.437-2.087 2.407c-0.5 0.971-0.749 2.144-0.749 3.519c0 1.2 0.2 2.3 0.6 3.2 C193.31 13.4 193.9 14.2 194.6 14.742z"/><path fill="#FFFFFF" d="M202.957 2.995c1.013 0 1.9 0.2 2.7 0.383c0.959 0.3 1.8 0.7 2.4 1.2 c0.647 0.5 1.2 1.1 1.6 1.842c0.391 0.7 0.7 1.5 1 2.431l1.499-0.405c-0.243-0.836-0.567-1.667-0.973-2.492 c-0.405-0.823-0.979-1.558-1.722-2.204c-0.743-0.646-1.694-1.159-2.855-1.54c-0.981-0.322-2.179-0.499-3.565-0.548V2.995z"/><path fill="#FFFFFF" d="M211.81 20.599c-0.391-0.906-0.942-1.669-1.657-2.292c-0.714-0.621-1.576-1.122-2.587-1.501 c-1.01-0.378-2.148-0.675-3.414-0.893l-1.194-0.187v1.574l0.973 0.152c2.269 0.4 4 1.1 5.1 2 c1.12 1 1.7 2.4 1.7 4.368c0 0.944-0.135 1.82-0.405 2.629c-0.27 0.809-0.723 1.51-1.356 2.1 c-0.635 0.594-1.479 1.059-2.532 1.395c-0.939 0.301-2.095 0.46-3.443 0.492v1.5c1.536-0.033 2.888-0.226 4.031-0.595 c1.256-0.406 2.287-0.975 3.092-1.705c0.806-0.729 1.393-1.595 1.762-2.596c0.37-0.999 0.554-2.096 0.554-3.285 C212.396 22.6 212.2 21.5 211.8 20.599z"/><path fill="#FFFFFF" d="M201.419 30.448c-4.808-0.263-7.589-2.37-8.346-6.33h-1.539c0.162 1.4 0.6 2.6 1.2 3.6 c0.648 1 1.5 1.8 2.5 2.419s2.106 1.1 3.4 1.377c0.92 0.2 1.9 0.3 2.9 0.403V30.448z"/><rect x="168.6" y="15.6" fill="#FFFFFF" width="13.9" height="1.5"/><rect x="168.6" y="2.3" fill="#FFFFFF" width="14.7" height="1.5"/><polygon fill="#FFFFFF" points="168.6,29.8 168.6,31.3 183.4,31.3 183.9,29.8"/><rect x="165.5" y="2.3" fill="#FFFFFF" width="1.6" height="28.9"/><path fill="#FFFFFF" d="M70.199 23.23h-1.58c0.189 1.6 0.6 2.9 1.1 4.031c0.568 1.1 1.3 2 2.1 2.7 c0.852 0.7 1.8 1.2 2.9 1.539c0.849 0.3 1.7 0.4 2.7 0.453v-1.5c-2.021-0.131-3.608-0.734-4.761-1.815 C71.38 27.4 70.5 25.6 70.2 23.23z"/><path fill="#FFFFFF" d="M86.421 2.329h-0.706h-7.009v1.5h7.009v17.998c0 2.886-0.582 5.049-1.742 6.5 c-1.056 1.312-2.722 2.021-4.983 2.14v1.495c2.47-0.137 4.444-0.939 5.915-2.422c1.62-1.634 2.431-4.138 2.431-7.515V2.329H86.421z "/><rect x="127.8" y="2.3" fill="#FFFFFF" width="1.6" height="28.9"/><rect x="152.8" y="2.3" fill="#FFFFFF" width="1.6" height="28.9"/><polygon fill="#FFFFFF" points="140.3,13.3 130.9,3.9 130.9,6.2 140.3,15.5"/><polygon fill="#FFFFFF" points="141.8,13.3 141.8,15.5 151.2,6.2 151.2,3.9"/><rect x="29.1" y="2.3" fill="#FFFFFF" width="22" height="1.5"/><rect x="39.3" y="5.4" fill="#FFFFFF" width="1.6" height="25.9"/><polygon fill="#FFFFFF" points="100.5,20.5 106.1,6.3 105.4,4.4 94.7,31.3 96.4,31.3 99.9,22 112.3,22 111.7,20.5"/><polygon fill="#FFFFFF" points="107.7,2.3 106.2,2.3 117.6,31.3 119.3,31.3"/><path fill="#FFFFFF" d="M120.778 62.314c1.628-0.486 2.93-1.344 3.906-2.572c0.978-1.229 1.466-2.896 1.466-5.002 c0-1.162-0.162-2.223-0.487-3.182c-0.324-0.957-0.858-1.775-1.604-2.449c-0.743-0.676-1.718-1.203-2.922-1.58 c-1.204-0.379-2.688-0.568-4.445-0.568h-6.463v1.5h6.22c2.896 0 5 0.5 6.2 1.529c1.218 1 1.8 2.6 1.8 4.8 s-0.597 3.811-1.787 4.911c-1.19 1.1-3.182 1.649-5.97 1.649h-6.463v1.5h6.562c0.406 0 0.812-0.014 1.22-0.042 c0.407-0.026 0.801-0.065 1.181-0.12l6.063 13.205h1.827L120.778 62.314z"/><rect x="107.2" y="47" fill="#FFFFFF" width="1.5" height="28.9"/><rect x="168.7" y="60.2" fill="#FFFFFF" width="13.9" height="1.5"/><rect x="168.7" y="47" fill="#FFFFFF" width="14.7" height="1.5"/><polygon fill="#FFFFFF" points="168.7,74.4 168.7,75.9 183.5,75.9 183.9,74.4"/><rect x="165.5" y="47" fill="#FFFFFF" width="1.6" height="28.9"/><polygon fill="#FFFFFF" points="145.4,57.7 156.2,47 154.3,47 139.3,61.7 139.3,63.6 144.2,58.7 155.4,75.9 157.3,75.9"/><rect x="136.1" y="47" fill="#FFFFFF" width="1.6" height="28.9"/><rect x="39.5" y="47" fill="#FFFFFF" width="1.6" height="28.9"/><rect x="64.5" y="47" fill="#FFFFFF" width="1.6" height="28.9"/><polygon fill="#FFFFFF" points="52,57.9 42.7,48.5 42.7,50.8 52,60.2"/><polygon fill="#FFFFFF" points="53.6,57.9 53.6,60.2 62.9,50.8 62.9,48.5"/><rect x="191.9" y="47" fill="#FFFFFF" width="22" height="1.5"/><rect x="202.1" y="50" fill="#FFFFFF" width="1.6" height="25.9"/><polygon fill="#FFFFFF" points="79.6,65.2 85.2,51 84.5,49.1 73.8,75.9 75.5,75.9 79,66.7 91.4,66.7 90.8,65.2"/><polygon fill="#FFFFFF" points="86.8,47 85.3,47 96.7,75.9 98.4,75.9"/></svg>
