<svg xmlns="http://www.w3.org/2000/svg" viewBox="0 0 256 19"><path fill="#FFFFFF" d="M256.134 16.74c0.291-0.289 0.438-0.648 0.438-1.078c0-0.443-0.143-0.809-0.426-1.092 c-0.281-0.281-0.648-0.424-1.102-0.424c-0.436 0-0.799 0.146-1.084 0.436c-0.287 0.289-0.43 0.65-0.43 1.1 c0 0.4 0.1 0.8 0.4 1.074c0.293 0.3 0.7 0.4 1.1 0.439C255.483 17.2 255.8 17 256.1 16.7 M241.276 6.4 c0.578-1.208 1.369-2.192 2.373-2.953c0.234-0.179 0.455-0.328 0.654-0.446c0.201-0.117 0.42-0.224 0.656-0.316 c0.479-0.194 1.002-0.344 1.568-0.452l0.225-0.043c0.58-0.107 0.871-0.29 0.871-0.548c0-0.129-0.053-0.229-0.156-0.296 c-0.104-0.068-0.25-0.103-0.436-0.103c-0.695 0-1.498 0.192-2.412 0.575c-0.912 0.383-1.699 0.88-2.357 1.5 c-0.994 0.924-1.752 2.044-2.266 3.358c-0.518 1.314-0.773 2.785-0.773 4.412c0 1.9 0.4 3.4 1.3 4.5 c0.84 1.1 1.9 1.7 3.3 1.666c1.166 0 2.145-0.438 2.934-1.312c0.787-0.873 1.182-1.969 1.182-3.287 c0-1.359-0.398-2.499-1.193-3.419c-0.795-0.922-1.762-1.382-2.898-1.382c-0.811 0-1.539 0.249-2.188 0.7 c-0.646 0.498-1.131 1.188-1.443 2.066C240.333 9.1 240.7 7.7 241.3 6.4 M241.565 15.2 c-0.594-0.73-0.893-1.641-0.893-2.729c0-1.023 0.301-1.882 0.898-2.572c0.596-0.69 1.324-1.036 2.186-1.036 c0.889 0 1.6 0.3 2.2 1.036s0.875 1.6 0.9 2.594c0 1.074-0.301 1.977-0.902 2.707c-0.6 0.73-1.326 1.096-2.18 1.1 C242.892 16.3 242.2 15.9 241.6 15.2 M232.03 4.555v-0.44c0-0.265-0.027-0.437-0.08-0.516 c-0.055-0.078-0.152-0.118-0.295-0.118c-0.129 0.015-0.312 0.072-0.551 0.172l-0.191 0.083l-2.664 1.1 c-0.258 0.107-0.439 0.213-0.547 0.317S227.54 5.4 227.5 5.5c0 0.1 0 0.2 0.1 0.3 c0.082 0.1 0.2 0.1 0.3 0.112c0.15 0 0.357-0.053 0.621-0.158l0.133-0.045l2.311-0.969v11.312h-3.17 c-0.271 0-0.461 0.043-0.568 0.129s-0.162 0.219-0.162 0.396c0 0.2 0.1 0.3 0.2 0.344s0.406 0.1 0.8 0.098h6.605 c0.51 0 0.826-0.037 0.951-0.107s0.188-0.189 0.188-0.354c0-0.18-0.061-0.309-0.184-0.389c-0.121-0.076-0.32-0.117-0.602-0.117 h-3.082V4.555L232.03 4.555z M222.3 15.436c0.764-1.209 1.145-2.906 1.145-5.091c0-2.186-0.381-3.884-1.145-5.098 c-0.762-1.214-1.82-1.821-3.174-1.821c-1.346 0-2.4 0.607-3.164 1.821c-0.762 1.214-1.145 2.913-1.145 5.1 c0 2.2 0.4 3.9 1.1 5.081c0.768 1.2 1.8 1.8 3.2 1.826C220.479 17.3 221.5 16.6 222.3 15.4 M216.769 14.8 c-0.584-1.096-0.875-2.569-0.875-4.425c0-1.861 0.295-3.341 0.887-4.437c0.59-1.096 1.373-1.644 2.346-1.644 c0.996 0 1.8 0.5 2.4 1.639s0.875 2.6 0.9 4.441c0 1.849-0.293 3.32-0.881 4.42c-0.586 1.1-1.375 1.648-2.363 1.6 S217.353 15.9 216.8 14.8 M203.761 13.729c0.451-0.559 1.363-1.125 2.738-1.696c1.67-0.703 2.756-1.371 3.26-2.004 c0.506-0.634 0.76-1.47 0.76-2.509c0-1.167-0.396-2.142-1.188-2.922c-0.793-0.78-1.803-1.172-3.035-1.172 c-1.117 0-2.09 0.323-2.918 0.968c-0.826 0.645-1.24 1.307-1.24 1.987c0 0.1 0 0.2 0.1 0.3 c0.07 0.1 0.2 0.1 0.2 0.117c0.188 0 0.402-0.199 0.65-0.601c0.246-0.402 0.438-0.685 0.574-0.85 c0.322-0.365 0.701-0.642 1.139-0.827c0.438-0.187 0.932-0.279 1.482-0.279c0.979 0 1.8 0.3 2.3 0.9 c0.561 0.6 0.8 1.4 0.8 2.396c0 0.308-0.027 0.589-0.086 0.843c-0.057 0.256-0.139 0.496-0.246 0.7 c-0.215 0.451-0.537 0.816-0.967 1.096c-0.279 0.201-0.822 0.469-1.627 0.801c-0.807 0.334-1.4 0.604-1.779 0.8 c-0.93 0.479-1.609 1.062-2.041 1.75c-0.43 0.688-0.645 1.525-0.645 2.514c0 0.3 0.1 0.6 0.2 0.7 c0.143 0.1 0.4 0.2 0.8 0.182h5.65c0.709 0 1.158-0.041 1.35-0.123c0.188-0.082 0.283-0.23 0.283-0.445 c0-0.172-0.072-0.287-0.221-0.35c-0.146-0.061-0.506-0.092-1.078-0.092h-5.941C203.083 15 203.3 14.3 203.8 13.7 M184.677 8.562c-0.344-0.58-0.785-1.012-1.324-1.294c-0.541-0.282-1.203-0.426-1.988-0.426c-1.316 0-2.377 0.474-3.184 1.4 c-0.803 0.946-1.207 2.196-1.207 3.749c0 1.5 0.4 2.8 1.2 3.743c0.814 0.9 1.9 1.4 3.2 1.4 c0.762 0 1.412-0.162 1.955-0.488c0.541-0.326 1.012-0.828 1.406-1.51v1.074v0.16c0 0.2 0 0.4 0.1 0.5 c0.057 0.1 0.1 0.1 0.3 0.096h1.162c0.377 0 0.646-0.041 0.807-0.123c0.156-0.082 0.236-0.209 0.236-0.381 c0-0.15-0.059-0.262-0.176-0.334c-0.119-0.07-0.307-0.107-0.562-0.107h-0.859V4.469v-0.16c0-0.243-0.029-0.399-0.086-0.468 c-0.059-0.067-0.154-0.102-0.291-0.102h-2.072c-0.473 0-0.777 0.034-0.914 0.102s-0.203 0.188-0.203 0.4 c0 0.2 0.1 0.3 0.2 0.365c0.107 0.1 0.3 0.1 0.6 0.097h1.723v3.899H184.677z M178.972 15.1 c-0.6-0.734-0.9-1.738-0.9-3.013c0-1.303 0.314-2.352 0.943-3.143c0.631-0.791 1.451-1.188 2.461-1.188 c1.002 0 1.8 0.4 2.4 1.096c0.602 0.7 0.9 1.7 0.9 2.934c0 1.345-0.309 2.417-0.924 3.216s-1.432 1.197-2.449 1.2 C180.388 16.2 179.6 15.9 179 15.1 M171.655 12.01c0.594 0 0.973-0.056 1.139-0.166c0.164-0.11 0.246-0.319 0.246-0.628 c0-1.247-0.449-2.286-1.348-3.12c-0.898-0.835-2.025-1.253-3.38-1.253c-1.445 0-2.645 0.486-3.594 1.5 c-0.947 0.972-1.422 2.208-1.422 3.711c0 1.5 0.5 2.7 1.4 3.713c0.934 1 2.1 1.5 3.6 1.5 c1.023 0 1.993-0.264 2.911-0.787c0.916-0.527 1.375-0.994 1.375-1.402c-0.008-0.123-0.045-0.215-0.111-0.279 c-0.068-0.064-0.15-0.098-0.242-0.098c-0.113 0-0.58 0.271-1.396 0.812s-1.663 0.811-2.536 0.811c-1.188 0-2.125-0.377-2.812-1.131 c-0.709-0.797-1.062-1.826-1.062-3.091L171.655 12.01L171.655 12.01z M165.795 8.686c0.699-0.599 1.523-0.897 2.477-0.897 c0.516 0 1 0.1 1.4 0.227c0.422 0.1 0.8 0.4 1.1 0.666c0.682 0.6 1.1 1.4 1.2 2.385h-7.53 C164.652 10.1 165.1 9.3 165.8 8.7 M150.766 16.059h-0.859c-0.258 0-0.447 0.041-0.568 0.1 c-0.123 0.078-0.184 0.191-0.184 0.344c0 0.2 0.1 0.3 0.2 0.365c0.127 0.1 0.4 0.1 0.9 0.096h2.148 c0.516 0 0.836-0.035 0.961-0.105c0.125-0.072 0.189-0.184 0.189-0.334c0-0.18-0.062-0.301-0.184-0.365 c-0.107-0.078-0.312-0.117-0.613-0.117h-0.9v-6.026c0.465-0.737 1.014-1.299 1.643-1.687c0.631-0.387 1.301-0.58 2.01-0.58 c0.752 0 1.3 0.2 1.6 0.623c0.328 0.4 0.5 1.2 0.5 2.277v5.393h-0.924c-0.293 0-0.5 0.035-0.617 0.1 c-0.117 0.07-0.178 0.189-0.178 0.354c0 0.2 0.1 0.3 0.2 0.365c0.148 0.1 0.5 0.1 0.9 0.096h2.232 c0.43 0 0.713-0.027 0.85-0.086c0.129-0.078 0.193-0.188 0.193-0.332c0-0.188-0.057-0.318-0.168-0.393 c-0.109-0.074-0.299-0.113-0.562-0.113h-0.902v-5.413c0-1.39-0.24-2.367-0.719-2.933c-0.48-0.565-1.262-0.849-2.342-0.849 c-0.725 0-1.41 0.17-2.062 0.51s-1.246 0.836-1.783 1.488V4.467V4.199c0-0.2-0.025-0.328-0.074-0.381 c-0.053-0.054-0.145-0.081-0.279-0.081h-1.182c-0.381 0-0.656 0.039-0.828 0.118c-0.156 0.086-0.236 0.215-0.236 0.4 c0 0.2 0.1 0.3 0.2 0.344c0.129 0.1 0.3 0.1 0.6 0.097h0.859v11.376H150.766z M139.492 16.6 c0.658 0.4 1.4 0.5 2.2 0.531c1.131 0 2.049-0.271 2.75-0.812c0.699-0.539 1.053-1.229 1.053-2.066 c0-0.795-0.262-1.416-0.785-1.862c-0.521-0.447-1.543-0.854-3.061-1.22l-0.936-0.216c-1.641-0.387-2.461-0.924-2.461-1.61 c0-0.517 0.215-0.914 0.646-1.196c0.43-0.283 1.02-0.426 1.771-0.426c0.738 0 1.4 0.1 1.8 0.4 c0.488 0.3 0.8 0.7 1.1 1.192l0.131 0.345c0.148 0.4 0.3 0.6 0.5 0.645c0.143 0 0.236-0.061 0.283-0.178 c0.047-0.118 0.068-0.37 0.068-0.758V7.938c0-0.329-0.037-0.565-0.113-0.709c-0.072-0.144-0.195-0.215-0.367-0.215 c-0.146 0-0.25 0.042-0.318 0.124c-0.066 0.082-0.102 0.201-0.102 0.359v0.14l0.062 0.548c-0.322-0.451-0.748-0.787-1.277-1.01 s-1.168-0.334-1.91-0.334c-1.02 0-1.846 0.246-2.479 0.736s-0.951 1.127-0.951 1.906c0 0.6 0.2 1.1 0.6 1.4 c0.4 0.4 1.3 0.7 2.8 1.042l0.311 0.075c2.312 0.6 3.5 1.3 3.5 2.276c0 0.586-0.244 1.053-0.734 1.4 c-0.49 0.342-1.137 0.516-1.939 0.516c-0.385 0-0.742-0.051-1.066-0.15c-0.326-0.1-0.635-0.246-0.918-0.438 c-0.566-0.395-1.045-0.986-1.432-1.777c-0.043-0.086-0.076-0.16-0.102-0.221s-0.053-0.133-0.08-0.219 c-0.129-0.336-0.273-0.504-0.43-0.504c-0.188 0-0.316 0.084-0.393 0.252s-0.113 0.461-0.113 0.877v2.127 c0 0.3 0 0.5 0.1 0.697c0.08 0.1 0.2 0.2 0.4 0.227c0.135 0 0.234-0.047 0.301-0.143 c0.062-0.094 0.096-0.244 0.096-0.453v-0.105l-0.02-1.221C138.34 15.8 138.8 16.3 139.5 16.6 M127.809 16.059h-2.729 c-0.258 0-0.447 0.041-0.568 0.119c-0.123 0.078-0.184 0.191-0.184 0.344c0 0.2 0.1 0.3 0.2 0.4 c0.127 0.1 0.4 0.1 0.9 0.096h5.961c0.516 0 0.834-0.033 0.957-0.102c0.121-0.068 0.182-0.182 0.182-0.338 c0-0.174-0.055-0.297-0.166-0.371s-0.314-0.113-0.607-0.113h-2.855V7.788V7.639c0-0.243-0.025-0.403-0.076-0.483 c-0.057-0.063-0.158-0.097-0.301-0.097h-3.19c-0.373 0-0.645 0.04-0.816 0.118c-0.156 0.086-0.235 0.215-0.235 0.4 c0 0.2 0.1 0.3 0.2 0.333c0.07 0 0.1 0.1 0.2 0.069c0.07 0 0.2 0 0.4 0.018h2.814v8.075H127.809z M129.049 5.785c0.254-0.261 0.383-0.585 0.383-0.972c0-0.401-0.129-0.732-0.383-0.993c-0.254-0.262-0.582-0.394-0.982-0.394 c-0.387 0-0.711 0.138-0.973 0.409c-0.262 0.272-0.393 0.599-0.393 0.978c0 0.4 0.1 0.7 0.4 1 c0.268 0.3 0.6 0.4 1 0.392C128.467 6.2 128.8 6 129 5.8 M114.757 16.059h-2.814 c-0.258 0-0.445 0.043-0.564 0.125c-0.118 0.082-0.177 0.193-0.177 0.338c0 0.2 0.1 0.3 0.2 0.4 c0.129 0.1 0.4 0.1 0.9 0.096h6.049c0.515 0 0.837-0.035 0.962-0.105c0.125-0.072 0.188-0.184 0.188-0.334 c0-0.18-0.061-0.301-0.182-0.365c-0.108-0.078-0.312-0.117-0.613-0.117H115.8V4.469V4.201c-0.021-0.222-0.054-0.354-0.097-0.397 c-0.043-0.044-0.13-0.064-0.259-0.064h-3.189c-0.371 0-0.645 0.039-0.816 0.118c-0.156 0.086-0.235 0.215-0.235 0.4 c0 0.2 0.1 0.3 0.2 0.344c0.129 0.1 0.3 0.1 0.6 0.097h2.814v11.373H114.757z M98.646 12.4 c0 1.427-0.061 2.718-0.182 3.878l-0.021 0.215c0 0.1 0 0.1 0 0.184l0.174 0.129l0.281 0.15l0.075 0.031l0.13 0 c0.064-0.008 0.114-0.029 0.15-0.064c0.035-0.035 0.063-0.102 0.086-0.193l0.355-1.213c0.43 0.6 0.9 1 1.4 1.3 c0.522 0.3 1.1 0.4 1.8 0.412c1.327 0 2.398-0.477 3.213-1.43c0.815-0.951 1.223-2.197 1.223-3.737 c0-1.546-0.403-2.794-1.215-3.742c-0.809-0.949-1.863-1.425-3.168-1.425c-0.772 0-1.437 0.144-1.986 0.4 c-0.553 0.282-0.995 0.714-1.332 1.294V4.47V4.31c0-0.236-0.024-0.394-0.075-0.473c-0.058-0.064-0.158-0.097-0.301-0.097h-1.257 c-0.373 0-0.645 0.039-0.816 0.118c-0.157 0.086-0.234 0.215-0.234 0.387c0 0.2 0.1 0.3 0.2 0.3 c0.119 0.1 0.3 0.1 0.6 0.103h0.881v7.7H98.646z M100.529 8.885c0.608-0.729 1.404-1.097 2.388-1.097 c1.026 0 1.9 0.4 2.5 1.192c0.623 0.8 0.9 1.8 0.9 3.138c0 1.274-0.302 2.278-0.904 3 c-0.603 0.732-1.416 1.102-2.44 1.102c-1.033 0-1.854-0.398-2.459-1.199c-0.606-0.797-0.91-1.869-0.91-3.216 C99.613 10.6 99.9 9.6 100.5 8.9 M91.802 16.865c0.258 0.2 0.6 0.3 0.9 0.311c0.48 0 0.9-0.15 1.262-0.455 c0.363-0.305 0.543-0.613 0.543-0.93c-0.006-0.115-0.037-0.201-0.09-0.258c-0.055-0.057-0.121-0.086-0.199-0.086 c-0.129 0-0.322 0.113-0.58 0.338c-0.258 0.227-0.49 0.338-0.698 0.338c-0.257 0-0.437-0.098-0.531-0.295 c-0.097-0.197-0.146-0.672-0.146-1.424v-3.759c0-1.304-0.299-2.264-0.893-2.879s-1.521-0.925-2.781-0.925 c-1.061 0-1.955 0.229-2.687 0.688c-0.729 0.457-1.095 0.984-1.095 1.578c0 0.3 0.1 0.6 0.3 0.8 c0.215 0.2 0.5 0.3 0.8 0.289c0.308 0 0.567-0.102 0.778-0.305c0.211-0.205 0.317-0.461 0.317-0.77 c0-0.094-0.008-0.174-0.021-0.241c-0.017-0.067-0.037-0.132-0.064-0.188c-0.059-0.129-0.145-0.242-0.259-0.344 c0.243-0.199 0.528-0.345 0.854-0.436c0.325-0.09 0.741-0.135 1.252-0.135c0.83 0 1.4 0.2 1.9 0.64s0.612 1.1 0.6 1.9 v0.602c-1.174 0-2.205 0.09-3.094 0.27c-0.889 0.179-1.637 0.418-2.244 0.72c-1.141 0.58-1.709 1.414-1.709 2.5 c0 0.9 0.3 1.5 0.9 2.041s1.386 0.8 2.4 0.752c0.537 0 1.125-0.105 1.763-0.316s1.308-0.52 2.008-0.93 C91.365 16.3 91.6 16.7 91.8 16.9 M89.269 15.877c-0.643 0.236-1.211 0.354-1.707 0.354c-0.688 0-1.25-0.178-1.684-0.537 c-0.434-0.357-0.65-0.809-0.65-1.354c0-0.795 0.459-1.387 1.377-1.771c0.537-0.235 1.152-0.419 1.84-0.548 c0.818-0.15 1.736-0.226 2.756-0.226v3.07C90.554 15.3 89.9 15.6 89.3 15.9 M73.222 13.3 c0 1.3 0.2 2.3 0.7 2.934c0.487 0.6 1.2 1 2.2 0.955c0.595 0 1.145-0.146 1.649-0.443s0.923-0.719 1.25-1.264 c0.224-0.344 0.399-0.715 0.532-1.111c0.132-0.396 0.197-0.703 0.197-0.918c0-0.172-0.043-0.312-0.133-0.424 s-0.191-0.168-0.307-0.168c-0.259 0-0.451 0.256-0.58 0.764l-0.129 0.451c-0.287 0.693-0.645 1.219-1.074 1.6 c-0.429 0.354-0.906 0.533-1.43 0.533c-0.658 0-1.135-0.23-1.429-0.693c-0.293-0.461-0.44-1.227-0.44-2.293V7.983h3.557 c0.271 0 0.466-0.029 0.58-0.087c0.113-0.071 0.172-0.183 0.172-0.333c0-0.18-0.078-0.309-0.236-0.387 c-0.157-0.078-0.43-0.118-0.814-0.118h-3.966c0.315-0.379 0.552-0.795 0.709-1.246c0.157-0.451 0.236-0.938 0.236-1.461 c0-0.236-0.039-0.415-0.117-0.537c-0.08-0.121-0.192-0.183-0.345-0.183c-0.235 0-0.43 0.363-0.58 1.1 c-0.148 0.727-0.348 1.255-0.592 1.584c-0.242 0.329-0.584 0.572-1.024 0.729c-0.44 0.158-0.659 0.334-0.659 0.5 c0 0.2 0.1 0.3 0.2 0.333c0.072 0 0.1 0.1 0.2 0.069c0.07 0 0.2 0 0.4 0.017h1.289V13.287 L73.222 13.287z M61.099 16.645c0.658 0.4 1.4 0.5 2.2 0.531c1.132 0 2.048-0.271 2.75-0.812 c0.702-0.539 1.054-1.229 1.054-2.066c0-0.795-0.262-1.416-0.785-1.862c-0.521-0.447-1.543-0.854-3.062-1.22l-0.935-0.216 c-1.64-0.387-2.459-0.924-2.459-1.61c0-0.517 0.215-0.914 0.644-1.196c0.431-0.283 1.021-0.426 1.772-0.426 c0.737 0 1.4 0.1 1.8 0.396c0.485 0.3 0.8 0.7 1.1 1.192L65.331 9.7c0.151 0.4 0.3 0.6 0.5 0.6 c0.143 0 0.238-0.061 0.285-0.178c0.046-0.118 0.07-0.37 0.07-0.758V7.938c0-0.329-0.039-0.565-0.113-0.709 c-0.075-0.144-0.199-0.215-0.371-0.215c-0.143 0-0.249 0.042-0.316 0.124c-0.068 0.082-0.103 0.201-0.103 0.359v0.14l0.065 0.5 c-0.322-0.451-0.75-0.787-1.279-1.01c-0.53-0.223-1.168-0.334-1.912-0.334c-1.018 0-1.842 0.246-2.477 0.7 c-0.634 0.49-0.949 1.127-0.949 1.906c0 0.6 0.2 1.1 0.6 1.439c0.4 0.4 1.3 0.7 2.8 1.042l0.312 0.1 c2.312 0.6 3.5 1.3 3.5 2.276c0 0.586-0.246 1.053-0.735 1.396c-0.491 0.344-1.138 0.516-1.938 0.5 c-0.387 0-0.742-0.051-1.068-0.15s-0.633-0.246-0.918-0.438c-0.565-0.395-1.042-0.986-1.43-1.777 c-0.043-0.086-0.076-0.16-0.103-0.221c-0.024-0.061-0.052-0.133-0.081-0.219c-0.129-0.336-0.271-0.504-0.429-0.504 c-0.187 0-0.317 0.084-0.394 0.252c-0.074 0.168-0.111 0.461-0.111 0.877v2.127c0 0.3 0 0.5 0.1 0.7 c0.08 0.1 0.2 0.2 0.4 0.227c0.136 0 0.235-0.047 0.3-0.143c0.064-0.094 0.098-0.244 0.098-0.453v-0.105l-0.021-1.221 C59.945 15.8 60.4 16.3 61.1 16.6 M52.949 12.01c0.595 0 0.975-0.056 1.141-0.166c0.163-0.11 0.246-0.319 0.246-0.628 c0-1.247-0.449-2.286-1.348-3.12c-0.898-0.835-2.025-1.253-3.379-1.253c-1.446 0-2.646 0.486-3.594 1.5 c-0.949 0.972-1.423 2.208-1.423 3.711c0 1.5 0.5 2.7 1.4 3.713c0.936 1 2.1 1.5 3.6 1.5 c1.023 0 1.994-0.264 2.91-0.787c0.918-0.527 1.375-0.994 1.375-1.402c-0.006-0.123-0.043-0.215-0.111-0.279 s-0.147-0.098-0.241-0.098c-0.115 0-0.58 0.271-1.396 0.812c-0.816 0.541-1.662 0.811-2.535 0.8 c-1.189 0-2.127-0.377-2.814-1.131c-0.709-0.797-1.064-1.826-1.064-3.091L52.949 12.01L52.949 12.01z M47.089 8.7 c0.698-0.599 1.523-0.897 2.477-0.897c0.517 0 1 0.1 1.4 0.227c0.424 0.1 0.8 0.4 1.1 0.7 c0.682 0.6 1.1 1.4 1.2 2.385h-7.529C45.945 10.1 46.4 9.3 47.1 8.7 M32.156 11.4 c-0.301 0-0.519 0.043-0.65 0.129s-0.199 0.227-0.199 0.42c0 0.2 0.1 0.4 0.2 0.445s0.484 0.1 1 0.122h6.713 c0.451 0 0.756-0.034 0.912-0.106c0.151-0.086 0.227-0.226 0.227-0.418c0-0.216-0.062-0.367-0.188-0.457 c-0.125-0.09-0.332-0.135-0.619-0.135H32.156z M25.89 12.01c0.594 0 0.975-0.056 1.139-0.166s0.248-0.319 0.248-0.628 c0-1.247-0.451-2.286-1.35-3.12c-0.898-0.835-2.025-1.253-3.379-1.253c-1.447 0-2.645 0.486-3.593 1.5 c-0.948 0.972-1.424 2.208-1.424 3.711c0 1.5 0.5 2.7 1.4 3.713c0.936 1 2.1 1.5 3.6 1.5 c1.024 0 1.994-0.264 2.911-0.787c0.917-0.527 1.375-0.994 1.375-1.402c-0.008-0.123-0.045-0.215-0.112-0.279 s-0.147-0.098-0.241-0.098c-0.115 0-0.58 0.271-1.396 0.812s-1.66 0.811-2.535 0.811c-1.188 0-2.127-0.377-2.812-1.131 c-0.709-0.797-1.064-1.826-1.064-3.091L25.89 12.01L25.89 12.01z M20.029 8.686c0.699-0.599 1.522-0.897 2.477-0.897 c0.516 0 1 0.1 1.4 0.227s0.8 0.4 1.1 0.666c0.68 0.6 1.1 1.4 1.2 2.385h-7.529 C18.886 10.1 19.3 9.3 20 8.7 M11.786 5.275c0.545 0.4 0.8 1 0.8 1.901c0 0.76-0.253 1.349-0.758 1.8 c-0.504 0.418-1.208 0.627-2.11 0.627H6.586V4.684h2.557C10.36 4.7 11.2 4.9 11.8 5.3 M5.007 3.7 c-0.372 0-0.645 0.039-0.816 0.118C4.033 3.9 4 4.1 4 4.244c0 0.2 0.1 0.3 0.2 0.3 c0.129 0.1 0.3 0.1 0.6 0.097h0.817v11.374H4.695c-0.257 0-0.445 0.043-0.563 0.125c-0.119 0.082-0.178 0.193-0.178 0.3 c0 0.2 0.1 0.3 0.2 0.365c0.129 0.1 0.4 0.1 0.9 0.096h2.02c0.515 0 0.836-0.035 0.961-0.105 c0.125-0.072 0.188-0.184 0.188-0.334c0-0.172-0.056-0.297-0.167-0.371c-0.111-0.074-0.313-0.111-0.606-0.111H6.586v-5.563h2.052 c1.296 0 2.2 0.3 2.6 0.881c0.458 0.6 0.7 1.8 0.7 3.716v0.611v0.463c0 0.4 0 0.6 0.1 0.7 c0.106 0.1 0.4 0.1 0.8 0.129h0.874c0.419 0 0.697-0.027 0.832-0.086c0.128-0.078 0.192-0.188 0.192-0.332 c0-0.193-0.054-0.322-0.161-0.387c-0.108-0.078-0.294-0.119-0.559-0.119l-1.031-0.01v-0.494v-0.773 c0-1.439-0.156-2.497-0.468-3.173c-0.311-0.678-0.839-1.146-1.584-1.402c0.845-0.158 1.504-0.51 1.976-1.059 c0.473-0.548 0.709-1.229 0.709-2.047c0-0.693-0.173-1.309-0.521-1.843c-0.347-0.532-0.825-0.922-1.434-1.166 c-0.3-0.12-0.692-0.211-1.176-0.268C10.083 3.8 9.4 3.7 8.5 3.74L5.007 3.739L5.007 3.739z"/></svg>
